HIERARCHY
ROOT Hip
{
	OFFSET 0 1.131 0.0052
	CHANNELS 6 Xposition Yposition Zposition Xrotation Yrotation Zrotation
	JOINT Abdomen
	{
		OFFSET 0 -0.047353 -0.05
		CHANNELS 3 Xrotation Zrotation Yrotation
		JOINT Chest
		{
			OFFSET 0 0.132153 0.007439
			CHANNELS 3 Xrotation Zrotation Yrotation
			JOINT Neck
			{
				OFFSET 0 0.3078 0.006161
				CHANNELS 3 Xrotation Zrotation Yrotation
				JOINT Head_comp
				{
					OFFSET 0 0.0884 0.013
					CHANNELS 3 Xrotation Yrotation Zrotation
					End Site
					{
						OFFSET -0 0.156 0.0624
					}
				}
			}
			JOINT Left_Collar
			{
				OFFSET 0.02282 0.250342 0.017193
				CHANNELS 2 Yrotation Zrotation
				JOINT Left_Shoulder
				{
					OFFSET 0.15421 0 0
					CHANNELS 3 Xrotation Yrotation Zrotation
					JOINT Left_Forearm
					{
						OFFSET 0.265212 0 0
						CHANNELS 2 Yrotation Xrotation
						JOINT Left_Hand
						{
							OFFSET 0.27571 0 0
							CHANNELS 2 Zrotation Yrotation
							JOINT L1ProxPhalanx
							{
								OFFSET 0.014142 0.001733 0.014142
								CHANNELS 3 Yrotation Zrotation Xrotation
								JOINT L1MidPhalanx
								{
									OFFSET 0.04 0 0
									CHANNELS 1 Zrotation
									JOINT L1DistPhalanx
									{
										OFFSET 0.035 0 0
										CHANNELS 1 Zrotation
										End Site
										{
											OFFSET 0.029 -0 -0
										}
									}
								}
							}
							JOINT L2ProxPhalanx
							{
								OFFSET 0.0821037 0.001578 0.0219996
								CHANNELS 2 Yrotation Zrotation
								JOINT L2MidPhalanx
								{
									OFFSET 0.04 0 0
									CHANNELS 1 Zrotation
									JOINT L2DistPhalanx
									{
										OFFSET 0.028 0 0
										CHANNELS 1 Zrotation
										End Site
										{
											OFFSET 0.02 -0 -0
										}
									}
								}
							}
							JOINT L3ProxPhalanx
							{
								OFFSET 0.083 0 0
								CHANNELS 2 Yrotation Zrotation
								JOINT L3MidPhalanx
								{
									OFFSET 0.053 0 0
									CHANNELS 1 Zrotation
									JOINT L3DistPhalanx
									{
										OFFSET 0.03 0 0
										CHANNELS 1 Zrotation
										End Site
										{
											OFFSET 0.023 -0 -0
										}
									}
								}
							}
							JOINT L4ProxPhalanx
							{
								OFFSET 0.077274 -0.000761 -0.0207055
								CHANNELS 2 Yrotation Zrotation
								JOINT L4MidPhalanx
								{
									OFFSET 0.05 0 0
									CHANNELS 1 Zrotation
									JOINT L4DistPhalanx
									{
										OFFSET 0.03 0 0
										CHANNELS 1 Zrotation
										End Site
										{
											OFFSET 0.023 -0 -0
										}
									}
								}
							}
							JOINT L5ProxPhalanx
							{
								OFFSET 0.0675499 -0.001644 -0.039
								CHANNELS 2 Yrotation Zrotation
								JOINT L5MidPhalanx
								{
									OFFSET 0.04 0 0
									CHANNELS 1 Zrotation
									JOINT L5DistPhalanx
									{
										OFFSET 0.021 0 0
										CHANNELS 1 Zrotation
										End Site
										{
											OFFSET 0.022 -0 -0
										}
									}
								}
							}
						}
					}
				}
			}
			JOINT Right_Collar
			{
				OFFSET -0.02282 0.250342 0.017193
				CHANNELS 2 Yrotation Zrotation
				JOINT Right_Shoulder
				{
					OFFSET -0.15421 0 0
					CHANNELS 3 Xrotation Yrotation Zrotation
					JOINT Right_Forearm
					{
						OFFSET -0.265212 0 0
						CHANNELS 2 Yrotation Xrotation
						JOINT Right_Hand
						{
							OFFSET -0.27571 3e-006 0
							CHANNELS 2 Zrotation Yrotation
							JOINT R1ProxPhalanx
							{
								OFFSET -0.014142 0.001733 0.014142
								CHANNELS 3 Yrotation Zrotation Xrotation
								JOINT R1MidPhalanx
								{
									OFFSET -0.04 0 0
									CHANNELS 1 Zrotation
									JOINT R1DistPhalanx
									{
										OFFSET -0.035 0 0
										CHANNELS 1 Zrotation
										End Site
										{
											OFFSET -0.029 -0 -0
										}
									}
								}
							}
							JOINT R2ProxPhalanx
							{
								OFFSET -0.0821037 0.001578 0.0219996
								CHANNELS 2 Yrotation Zrotation
								JOINT R2MidPhalanx
								{
									OFFSET -0.04 0 0
									CHANNELS 1 Zrotation
									JOINT R2DistPhalanx
									{
										OFFSET -0.028 0 0
										CHANNELS 1 Zrotation
										End Site
										{
											OFFSET -0.02 -0 -0
										}
									}
								}
							}
							JOINT R3ProxPhalanx
							{
								OFFSET -0.083 0 0
								CHANNELS 2 Yrotation Zrotation
								JOINT R3MidPhalanx
								{
									OFFSET -0.053 0 0
									CHANNELS 1 Zrotation
									JOINT R3DistPhalanx
									{
										OFFSET -0.03 0 0
										CHANNELS 1 Zrotation
										End Site
										{
											OFFSET -0.023 -0 -0
										}
									}
								}
							}
							JOINT R4ProxPhalanx
							{
								OFFSET -0.077274 -0.000761 -0.0207055
								CHANNELS 2 Yrotation Zrotation
								JOINT R4MidPhalanx
								{
									OFFSET -0.05 0 0
									CHANNELS 1 Zrotation
									JOINT R4DistPhalanx
									{
										OFFSET -0.03 0 0
										CHANNELS 1 Zrotation
										End Site
										{
											OFFSET -0.023 -0 -0
										}
									}
								}
							}
							JOINT R5ProxPhalanx
							{
								OFFSET -0.0675499 -0.001644 -0.039
								CHANNELS 2 Yrotation Zrotation
								JOINT R5MidPhalanx
								{
									OFFSET -0.04 0 0
									CHANNELS 1 Zrotation
									JOINT R5DistPhalanx
									{
										OFFSET -0.021 0 0
										CHANNELS 1 Zrotation
										End Site
										{
											OFFSET -0.022 -0 -0
										}
									}
								}
							}
						}
					}
				}
			}
		}
	}
	JOINT Left_Thigh
	{
		OFFSET 0.1118 -0.1612 -0.0442
		CHANNELS 3 Xrotation Zrotation Yrotation
		JOINT Left_Shin
		{
			OFFSET 0 -0.477856 0
			CHANNELS 1 Xrotation
			JOINT Left_Foot
			{
				OFFSET 0 -0.431952 0
				CHANNELS 2 Xrotation Zrotation
				JOINT Left_Toe
				{
					OFFSET 0 -0.0442 0.119
					CHANNELS 1 Xrotation
					End Site
					{
						OFFSET -0 -0 0.07
					}
				}
			}
		}
	}
	JOINT Right_Thigh
	{
		OFFSET -0.1118 -0.1612 -0.0442
		CHANNELS 3 Xrotation Zrotation Yrotation
		JOINT Right_Shin
		{
			OFFSET 0 -0.477856 0
			CHANNELS 1 Xrotation
			JOINT Right_Foot
			{
				OFFSET 0 -0.431952 0
				CHANNELS 2 Xrotation Zrotation
				JOINT Right_Toe
				{
					OFFSET 0 -0.0442 0.119
					CHANNELS 1 Xrotation
					End Site
					{
						OFFSET -0 -0 0.07
					}
				}
			}
		}
	}
}
MOTION
Frames: 8
Frame Time: 0.009975
-0.0982737 -0.0601339 0.0476668 1.15885e-012 4.86822e-008 -5.10966e-006 0 0 0 0 0 0 0 0 0 0 0 0 0 0 -0 0 -0 0 0 0 0 -36.7832 -29.9624 77.4898 -4.76427 -12.2444 -6.63439 -16.4575 -31.3511 -13.5114 -0.647911 -24.507 -18.2419 -18.0941 9.02909 -22.0218 -38.2405 -19.3412 17.3445 -18.4185 -40.523 -37.4487 0 0 -0 0 -0 0 0 0 0 62.023 59.9528 98.3788 9.85361 7.61885 6.86856 8.04106 19.5744 15.8614 0.506266 -0.935755 7.29198 2.34277 3.30717 -1.95745 10.1317 6.04476 -7.74582 -4.65408 45.1315 -38.6656 0.534462 -0.851855 -0.00794619 0.0240216 -0.558424 0.851897 0 0.545868 -0.851854 -0.00811577 2.41484e-006 -0.54581 0.851897 0 
-0.0982737 -0.0601339 0.0476668 1.15885e-012 4.86822e-008 -5.10966e-006 0 0 0 0 0 0 0 0 0 0 0 0 0 0 -0 0 -0 0 0 0 0 -36.7832 -29.9624 77.4898 -4.76427 -12.2444 -6.63439 -16.4575 -31.3511 -13.5114 -0.647911 -24.507 -18.2419 -18.0941 9.02909 -22.0218 -38.2405 -19.3412 17.3445 -18.4185 -40.523 -37.4487 0 0 -0 0 -0 0 0 0 0 62.023 59.9528 98.3788 9.85361 7.61885 6.86856 8.04106 19.5744 15.8614 0.506266 -0.935755 7.29198 2.34277 3.30717 -1.95745 10.1317 6.04476 -7.74582 -4.65408 45.1315 -38.6656 0.534462 -0.851855 -0.00794619 0.0240216 -0.558424 0.851897 0 0.545868 -0.851854 -0.00811577 2.41484e-006 -0.54581 0.851897 0 
-0.101406 -0.0600578 0.0356737 2.16555e-012 -1.86827e-008 -5.08408e-006 0 -0 0 0 -0 0 0 -0 0 -0.71013 0.291057 -9.0639e-006 -4.08473 -15.5041 -18.1154 -32.12 -37.9455 -31.9378 16.4594 25.5663 -5.43367 -62.0265 -59.7752 98.2628 -9.97935 -7.68075 -6.83957 -8.15076 -19.6765 -15.8571 -0.503804 0.771077 -7.45552 -2.42105 -3.28384 1.78778 -10.2811 -6.10454 7.73727 4.51082 -45.0759 38.3723 4.08473 15.5041 -18.1154 32.12 37.9455 31.9378 16.4594 -25.5663 5.43367 62.0265 59.7752 98.2628 9.97935 7.68075 6.83957 8.15076 19.6765 15.8571 0.503804 -0.771077 7.45552 2.42105 3.28384 -1.78778 10.2811 6.10454 -7.73727 -4.51082 45.0759 -38.3723 -0.220842 -0.654605 0.00252943 0.0239015 0.196926 0.654615 0 -0.209493 -0.654605 0.00239945 1.69901e-006 0.209478 0.654615 0 
-0.10135 -0.0600622 0.0346958 2.17643e-012 -1.87765e-008 -5.10962e-006 0 -0 0 0 -0 0 0 -0 0 -0.711695 0.290718 -2.37967e-010 -4.10513 -15.582 -17.4587 -32.2688 -36.129 -32.9446 16.54 25.6947 -5.46052 -62.023 -59.9528 98.3788 -9.85361 -7.61885 -6.86856 -8.04106 -19.5744 -15.8614 -0.506266 0.935755 -7.29198 -2.34277 -3.30717 1.95745 -10.1317 -6.04476 7.74582 4.65408 -45.1315 38.6656 4.10513 15.582 -17.4587 32.2688 36.129 32.9446 16.54 -25.6947 5.46052 62.023 59.9528 98.3788 9.85361 7.61885 6.86856 8.04106 19.5744 15.8614 0.506266 -0.935755 7.29198 2.34277 3.30717 -1.95745 10.1317 6.04476 -7.74582 -4.65408 45.1315 -38.6656 -0.282484 -0.658112 0.00324466 0.0240216 0.258444 0.658126 0 -0.271079 -0.658113 0.00311366 1.28066e-008 0.271061 0.658126 0 
-0.10135 -0.0600623 0.0346849 -8.78441e-013 -2.42156e-008 -5.1096e-006 0 -0 0 0 -0 0 0 -0 0 -0.71167 0.290697 -6.70635e-015 -4.10513 -15.582 -17.4536 -32.2684 -36.1173 -32.951 16.54 25.6947 -5.46052 -62.023 -59.9528 98.3788 -9.85361 -7.61885 -6.86856 -8.04106 -19.5744 -15.8614 -0.506266 0.935755 -7.29198 -2.34277 -3.30717 1.95745 -10.1317 -6.04476 7.74582 4.65408 -45.1315 38.6656 4.10513 15.582 -17.4536 32.2684 36.1173 32.951 16.54 -25.6947 5.46052 62.023 59.9528 98.3788 9.85361 7.61885 6.86856 8.04106 19.5744 15.8614 0.506266 -0.935755 7.29198 2.34277 3.30717 -1.95745 10.1317 6.04476 -7.74582 -4.65408 45.1315 -38.6656 -0.28317 -0.658116 0.00325256 0.0240216 0.25913 0.65813 0 -0.271765 -0.658117 0.00312155 1.69047e-006 0.271745 0.65813 0 
-0.10135 -0.0600623 0.0346848 -8.37391e-014 -2.42364e-008 -5.1096e-006 0 -0 0 0 -0 0 0 -0 0 -0.711669 0.290697 3.88256e-019 -4.10513 -15.582 -17.4536 -32.2684 -36.1173 -32.951 16.54 25.6947 -5.46052 -62.023 -59.9528 98.3788 -9.85361 -7.61885 -6.86856 -8.04106 -19.5744 -15.8614 -0.506266 0.935755 -7.29198 -2.34277 -3.30717 1.95745 -10.1317 -6.04476 7.74582 4.65408 -45.1315 38.6656 4.10513 15.582 -17.4536 32.2684 36.1173 32.951 16.54 -25.6947 5.46052 62.023 59.9528 98.3788 9.85361 7.61885 6.86856 8.04106 19.5744 15.8614 0.506266 -0.935755 7.29198 2.34277 3.30717 -1.95745 10.1317 6.04476 -7.74582 -4.65408 45.1315 -38.6656 -0.283175 -0.658116 0.00325261 0.0240216 0.259132 0.65813 0 -0.271769 -0.658117 0.0031216 1.70755e-006 0.271747 0.65813 0 
-0.10135 -0.0600623 0.0346848 -9.225e-013 -2.42364e-008 -5.1096e-006 0 -0 0 0 -0 0 0 -0 0 -0.711669 0.290697 3.88256e-019 -4.10513 -15.582 -17.4536 -32.2684 -36.1173 -32.951 16.54 25.6947 -5.46052 -62.023 -59.9528 98.3788 -9.85361 -7.61885 -6.86856 -8.04106 -19.5744 -15.8614 -0.506266 0.935755 -7.29198 -2.34277 -3.30717 1.95745 -10.1317 -6.04476 7.74582 4.65408 -45.1315 38.6656 4.10513 15.582 -17.4536 32.2684 36.1173 32.951 16.54 -25.6947 5.46052 62.023 59.9528 98.3788 9.85361 7.61885 6.86856 8.04106 19.5744 15.8614 0.506266 -0.935755 7.29198 2.34277 3.30717 -1.95745 10.1317 6.04476 -7.74582 -4.65408 45.1315 -38.6656 -0.283175 -0.658116 0.00325261 0.0240216 0.259134 0.65813 0 -0.271769 -0.658117 0.0031216 2.41484e-006 0.271749 0.65813 0 
-0.10135 -0.0600623 0.0346848 -9.35543e-013 -2.42364e-008 -5.1096e-006 0 -0 0 0 -0 0 0 -0 0 -0.711669 0.290697 -3.88256e-019 -4.10513 -15.582 -17.4536 -32.2684 -36.1173 -32.951 16.54 25.6947 -5.46052 -62.023 -59.9528 98.3788 -9.85361 -7.61885 -6.86856 -8.04106 -19.5744 -15.8614 -0.506266 0.935755 -7.29198 -2.34277 -3.30717 1.95745 -10.1317 -6.04476 7.74582 4.65408 -45.1315 38.6656 4.10513 15.582 -17.4536 32.2684 36.1173 32.951 16.54 -25.6947 5.46052 62.023 59.9528 98.3788 9.85361 7.61885 6.86856 8.04106 19.5744 15.8614 0.506266 -0.935755 7.29198 2.34277 3.30717 -1.95745 10.1317 6.04476 -7.74582 -4.65408 45.1315 -38.6656 -0.283175 -0.658116 0.00325261 0.0240216 0.259134 0.65813 0 -0.271769 -0.658117 0.0031216 2.41484e-006 0.271749 0.65813 0 
